HIERARCHY
ROOT Hips
{
	OFFSET 0.00000 0.00000 0.00000
	CHANNELS 6 Xposition Yposition Zposition Zrotation Yrotation Xrotation 
	JOINT LHipJoint
	{
		OFFSET 0 0 0
		CHANNELS 3 Zrotation Yrotation Xrotation
		JOINT LeftHip
		{
			OFFSET 1.32989 -1.57253 0.78074
			CHANNELS 3 Zrotation Yrotation Xrotation
			JOINT LeftKnee
			{
				OFFSET 2.24323 -6.16323 0.00000
				CHANNELS 3 Zrotation Yrotation Xrotation
				JOINT LeftAnkle
				{
					OFFSET 2.32677 -6.39275 0.00000
					CHANNELS 3 Zrotation Yrotation Xrotation
					JOINT LeftToe
					{
						OFFSET 0.18686 -0.51340 1.95973
						CHANNELS 3 Zrotation Yrotation Xrotation
						End Site
						{
							OFFSET 0.00000 -0.00000 1.02033
						}
					}
				}
			}
		}
	}
	JOINT RHipJoint
	{
		OFFSET 0 0 0
		CHANNELS 3 Zrotation Yrotation Xrotation
		JOINT RightHip
		{
			OFFSET -1.27392 -1.57253 0.78074
			CHANNELS 3 Zrotation Yrotation Xrotation
			JOINT RightKnee
			{
				OFFSET -2.19978 -6.04385 0.00000
				CHANNELS 3 Zrotation Yrotation Xrotation
				JOINT RightAnkle
				{
					OFFSET -2.29380 -6.30216 0.00000
					CHANNELS 3 Zrotation Yrotation Xrotation
					JOINT RightToe
					{
						OFFSET -0.24624 -0.67655 1.94854
						CHANNELS 3 Zrotation Yrotation Xrotation
						End Site
						{
							OFFSET -0.00000 -0.00000 1.03267
						}
					}
				}
			}
		}
	}
	JOINT lowerback
	{
		OFFSET 0 0 0
		CHANNELS 3 Zrotation Yrotation Xrotation
		JOINT Chest
		{
			OFFSET -0.05982 2.08655 0.02100
			CHANNELS 3 Zrotation Yrotation Xrotation
			JOINT Chest2
			{
				OFFSET 0.04735 2.08455 -0.01795
				CHANNELS 3 Zrotation Yrotation Xrotation
				JOINT lowerneck
				{
					OFFSET 0 0 0
					CHANNELS 3 Zrotation Yrotation Xrotation
					JOINT Neck
					{
						OFFSET -0.10038 1.43781 0.03084
						CHANNELS 3 Zrotation Yrotation Xrotation
						JOINT Head
						{
							OFFSET 0.07701 1.43632 -0.18495
							CHANNELS 3 Zrotation Yrotation Xrotation
							End Site
							{
								OFFSET 0.02744 1.45633 -0.07361
							}
						}
					}
				}
				JOINT LeftCollar
				{
					OFFSET 0 0 0
					CHANNELS 3 Zrotation Yrotation Xrotation
					JOINT LeftShoulder
					{
						OFFSET 2.75061 0.74389 0.25227
CHANNELS 3 Zrotation Xrotation Yrotation
						JOINT LeftElbow
						{
OFFSET 0 -4.369010 0.000000
CHANNELS 3 Zrotation Xrotation Yrotation
							JOINT LeftWrist
							{
OFFSET 0 -3.217370 -0.000000
CHANNELS 3 Zrotation Xrotation Yrotation
								JOINT lhand
								{
									OFFSET 0 0 0
CHANNELS 3 Zrotation Xrotation Yrotation
									JOINT LFingers
									{
OFFSET 0 -0.564310 0.000000
CHANNELS 3 Zrotation Xrotation Yrotation
										End Site
										{
OFFSET 0 -0.454960 0.000000
										}
									}
								}
								JOINT LThumb
								{
OFFSET 0 0.000000 0.000000
CHANNELS 3 Zrotation Xrotation Yrotation
									End Site
									{
OFFSET 0 -0.461910 0.461910
									}
								}
							}
						}
					}
				}
				JOINT RightCollar
				{
					OFFSET 0 0 0
					CHANNELS 3 Zrotation Yrotation Xrotation
					JOINT RightShoulder
					{
						OFFSET -2.97379 0.79094 0.48377
CHANNELS 3 Zrotation Xrotation Yrotation
						JOINT RightElbow
						{
OFFSET 0 -4.341180 -0.000000
CHANNELS 3 Zrotation Xrotation Yrotation
							JOINT RightWrist
							{
OFFSET 0 -3.095310 0.000000
CHANNELS 3 Zrotation Xrotation Yrotation
								JOINT rhand
								{
									OFFSET 0 0 0
CHANNELS 3 Zrotation Xrotation Yrotation
									JOINT RFingers
									{
OFFSET 0 -0.597450 0.000000
CHANNELS 3 Zrotation Xrotation Yrotation
										End Site
										{
OFFSET 0 -0.481680 0.000000
										}
									}
								}
								JOINT RThumb
								{
OFFSET 0 0.000000 0.000000
CHANNELS 3 Zrotation Xrotation Yrotation
									End Site
									{
OFFSET 0 -0.489030 0.489030
									}
								}
							}
						}
					}
				}
			}
		}
	}
}
MOTION
Frames: 10
Frame Time: 0.008333333333333333
10.028700 16.017200 -4.055100 176.764000 -2.976700 -177.081000 0.000000 0.000000 0.000000 -23.935400 3.701200 -16.437800 2.753200 10.284400 29.902800 0.897400 8.501500 -22.904000 0.830300 -5.813400 -16.244000 0.000000 0.000000 0.000000 18.560100 13.933700 -4.743800 -0.763400 -5.579700 15.569600 -2.397700 -5.320100 -31.510500 -1.242900 7.068900 -19.919600 -2.583600 -0.158400 -4.018100 2.733600 -0.208800 -0.322300 4.261700 -0.161100 1.940900 -6.436100 -2.162600 -10.517400 0.013900 -4.913400 32.112300 0.206600 -4.072400 12.530000 0.000000 0.000000 0.000000 26.047200 1.164600 -19.257100 15.820500 -25.276700 3.569000 30.813200 12.229900 -48.871800 0.000000 0.000000 0.000000 -7.125000 0.000000 0.000000 -34.715600 81.746200 29.731500 0.000000 0.000000 0.000000 -22.654400 -5.428300 13.135900 -13.918800 -22.618500 -2.796800 -21.747100 1.819400 -24.828700 0.000000 0.000000 0.000000 7.125000 0.000000 -0.000000 4.726100 3.578500 4.437300
10.030546 16.022502 -4.074026 176.785476 -2.857576 -177.083013 0.000000 0.000000 0.000000 -23.773426 3.489529 -16.677658 2.733268 10.250039 29.790522 0.879984 8.559619 -22.798097 0.814696 -5.759207 -16.087495 0.000000 0.000000 0.000000 18.642077 13.962155 -4.518371 -0.737428 -5.484267 15.295482 -2.351091 -5.463619 -31.302755 -1.216659 6.995748 -19.703097 -2.626652 -0.157830 -3.905956 2.720849 -0.205914 -0.290791 4.272941 -0.159087 1.910331 -6.369424 -2.128172 -10.627128 0.043329 -4.863637 32.111830 0.211566 -4.032972 12.549362 0.000000 0.000000 0.000000 27.056864 1.259899 -18.827349 15.756777 -25.189622 3.541920 30.374389 11.968466 -49.315141 0.000000 0.000000 0.000000 -7.125000 0.000000 0.000000 -37.764491 81.805795 32.475670 0.000000 0.000000 0.000000 -23.357464 -5.616582 12.900975 -13.853131 -22.524208 -2.771700 -21.771294 1.859936 -24.976145 0.000000 0.000000 0.000000 7.125000 0.000000 0.000000 4.727375 3.420821 4.452299
10.032391 16.027804 -4.092951 176.806952 -2.738453 -177.085027 0.000000 0.000000 0.000000 -23.611451 3.277858 -16.917516 2.713336 10.215677 29.678244 0.862569 8.617738 -22.692195 0.799093 -5.705014 -15.930990 0.000000 0.000000 0.000000 18.724054 13.990611 -4.292943 -0.711455 -5.388834 15.021363 -2.304482 -5.607137 -31.095011 -1.190419 6.922596 -19.486594 -2.669705 -0.157259 -3.793812 2.708097 -0.203028 -0.259282 4.284182 -0.157073 1.879761 -6.302749 -2.093743 -10.736856 0.072757 -4.813873 32.111360 0.216533 -3.993544 12.568724 0.000000 0.000000 0.000000 28.066529 1.355198 -18.397598 15.693055 -25.102545 3.514841 29.935578 11.707032 -49.758482 0.000000 0.000000 0.000000 -7.125000 0.000000 0.000000 -40.813383 81.865391 35.219840 0.000000 0.000000 0.000000 -24.060528 -5.804865 12.666050 -13.787462 -22.429916 -2.746600 -21.795488 1.900471 -25.123589 0.000000 0.000000 0.000000 7.125000 0.000000 0.000000 4.728650 3.263141 4.467299
10.034199 16.033156 -4.111835 176.827593 -2.618855 -177.086860 0.000000 0.000000 0.000000 -23.450446 3.067052 -17.157138 2.693612 10.181672 29.567132 0.844266 8.677683 -22.579585 0.784060 -5.652803 -15.780206 0.000000 0.000000 0.000000 18.804591 14.016105 -4.067927 -0.685298 -5.292529 14.744786 -2.257092 -5.751005 -30.882462 -1.164367 6.849944 -19.271583 -2.713304 -0.156371 -3.681490 2.694666 -0.199670 -0.227971 4.295049 -0.154804 1.848841 -6.235588 -2.059553 -10.844784 0.102391 -4.764819 32.110043 0.221459 -3.954358 12.587371 0.000000 0.000000 0.000000 29.078561 1.453215 -17.967965 15.630072 -25.016477 3.488077 29.490552 11.437708 -50.195602 0.000000 0.000000 0.000000 -7.125000 0.000000 0.000000 -43.828401 81.918361 37.929041 0.000000 0.000000 0.000000 -24.765376 -5.990072 12.429913 -13.722321 -22.336376 -2.721705 -21.820300 1.940782 -25.268248 0.000000 0.000000 0.000000 7.125000 0.000000 0.000000 4.729248 3.108246 4.481408
10.034166 16.040974 -4.128646 176.807124 -2.475873 -177.079813 0.000000 0.000000 0.000000 -23.337195 2.898837 -17.385150 2.684149 10.165196 29.513476 0.782255 8.827577 -22.136613 0.797113 -5.698170 -15.911175 0.000000 0.000000 0.000000 18.814188 13.895774 -3.863270 -0.650031 -5.153272 14.347115 -2.171256 -5.912040 -30.433350 -1.147657 6.801926 -19.130010 -2.783838 -0.139828 -3.560387 2.647755 -0.173061 -0.206428 4.287465 -0.139905 1.800655 -6.144517 -2.037070 -10.864079 0.142121 -4.750692 32.066957 0.224412 -3.927110 12.570828 0.000000 0.000000 0.000000 30.207249 1.685120 -17.544120 15.603563 -24.980136 3.476869 28.739437 10.779810 -50.326336 0.000000 0.000000 0.000000 -7.125000 0.000000 0.000000 -45.175134 81.645048 38.916022 0.000000 0.000000 0.000000 -25.558101 -6.023829 12.134084 -13.683161 -22.279902 -2.706873 -21.875566 1.970043 -25.275698 0.000000 0.000000 0.000000 7.125000 0.000000 0.000000 4.696498 3.090461 4.451678
10.034132 16.048793 -4.145458 176.786654 -2.332891 -177.072766 0.000000 0.000000 0.000000 -23.223944 2.730621 -17.613163 2.674686 10.148720 29.459820 0.720243 8.977472 -21.693641 0.810166 -5.743538 -16.042144 0.000000 0.000000 0.000000 18.823785 13.775442 -3.658612 -0.614764 -5.014015 13.949444 -2.085420 -6.073074 -29.984237 -1.130946 6.753907 -18.988438 -2.854373 -0.123285 -3.439283 2.600844 -0.146451 -0.184885 4.279882 -0.125006 1.752468 -6.053446 -2.014588 -10.883373 0.181851 -4.736565 32.023871 0.227365 -3.899863 12.554285 0.000000 0.000000 0.000000 31.335936 1.917025 -17.120275 15.577054 -24.943795 3.465662 27.988321 10.121913 -50.457069 0.000000 0.000000 0.000000 -7.125000 0.000000 0.000000 -46.521868 81.371735 39.903002 0.000000 0.000000 0.000000 -26.350826 -6.057586 11.838255 -13.644001 -22.223427 -2.692041 -21.930833 1.999304 -25.283147 0.000000 0.000000 0.000000 7.125000 0.000000 0.000000 4.663747 3.072677 4.421947
10.034067 16.056739 -4.162229 176.766987 -2.188192 -177.064932 0.000000 0.000000 0.000000 -23.109520 2.562906 -17.838696 2.665199 10.132197 29.406016 0.656982 9.126078 -21.234226 0.822616 -5.786813 -16.167069 0.000000 0.000000 0.000000 18.833871 13.657154 -3.453905 -0.579508 -4.874255 13.550445 -1.999069 -6.236987 -29.532430 -1.115225 6.708740 -18.855271 -2.924019 -0.105812 -3.318953 2.553698 -0.118648 -0.163081 4.271597 -0.109523 1.704867 -5.962422 -1.992892 -10.901244 0.221846 -4.723505 31.978993 0.230360 -3.872968 12.536763 0.000000 0.000000 0.000000 32.468779 2.152967 -16.699844 15.553112 -24.910971 3.455538 27.253568 9.465527 -50.585036 0.000000 0.000000 0.000000 -7.125000 0.000000 0.000000 -47.837753 81.104445 40.866962 0.000000 0.000000 0.000000 -27.148546 -6.086208 11.540210 -13.604238 -22.166072 -2.676988 -21.986980 2.026211 -25.290653 0.000000 0.000000 0.000000 7.125000 0.000000 0.000000 4.630468 3.054669 4.391728
10.033228 16.067779 -4.178034 176.766651 -2.002057 -177.038087 0.000000 0.000000 0.000000 -22.966807 2.407273 -18.004429 2.655133 10.114547 29.348636 0.563562 9.243625 -20.378114 0.820502 -5.779598 -16.146197 0.000000 0.000000 0.000000 18.855749 13.588163 -3.248006 -0.544543 -4.722381 13.119419 -1.900314 -6.470335 -29.015601 -1.123379 6.732364 -18.924900 -2.972239 -0.065914 -3.217279 2.500881 -0.062073 -0.134961 4.246396 -0.079961 1.671378 -5.872526 -1.990174 -10.884768 0.268220 -4.736189 31.890875 0.234387 -3.854579 12.495623 0.000000 0.000000 0.000000 33.701892 2.486312 -16.361768 15.591097 -24.963017 3.471578 26.913579 8.845615 -50.646242 0.000000 0.000000 0.000000 -7.125000 0.000000 0.000000 -48.409411 80.982469 41.275539 0.000000 0.000000 0.000000 -28.066771 -5.990943 11.188712 -13.549911 -22.087484 -2.656586 -22.064360 1.996347 -25.299511 0.000000 0.000000 0.000000 7.125000 0.000000 0.000000 4.584429 3.031281 4.349716
10.032389 16.078819 -4.193839 176.766316 -1.815922 -177.011242 0.000000 0.000000 0.000000 -22.824093 2.251641 -18.170162 2.645066 10.096897 29.291255 0.470142 9.361171 -19.522001 0.818388 -5.772384 -16.125326 0.000000 0.000000 0.000000 18.877628 13.519172 -3.042107 -0.509578 -4.570507 12.688393 -1.801559 -6.703683 -28.498773 -1.131533 6.755987 -18.994528 -3.020459 -0.026016 -3.115604 2.448064 -0.005498 -0.106841 4.221196 -0.050398 1.637889 -5.782629 -1.987456 -10.868292 0.314594 -4.748873 31.802757 0.238414 -3.836191 12.454483 0.000000 0.000000 0.000000 34.935006 2.819657 -16.023692 15.629082 -25.015062 3.487618 26.573591 8.225703 -50.707448 0.000000 0.000000 0.000000 -7.125000 0.000000 0.000000 -48.981070 80.860494 41.684116 0.000000 0.000000 0.000000 -28.984995 -5.895678 10.837213 -13.495584 -22.008896 -2.636184 -22.141740 1.966482 -25.308370 0.000000 0.000000 0.000000 7.125000 0.000000 0.000000 4.538390 3.007892 4.307704
10.031486 16.089911 -4.209620 176.769486 -1.628105 -176.983856 0.000000 0.000000 0.000000 -22.677299 2.096642 -18.333096 2.635376 10.079907 29.236024 0.376104 9.474048 -18.639278 0.815503 -5.762459 -16.096639 0.000000 0.000000 0.000000 18.903365 13.454186 -2.835022 -0.474731 -4.418148 12.256161 -1.702630 -6.937702 -27.979172 -1.138082 6.774939 -19.050402 -3.065363 0.014643 -3.014349 2.396156 0.051895 -0.078128 4.195072 -0.020456 1.605178 -5.692953 -1.985309 -10.850222 0.360177 -4.761890 31.712560 0.242220 -3.817994 12.412182 0.000000 0.000000 0.000000 36.173391 3.157839 -15.693391 15.669716 -25.070707 3.504797 26.251199 7.605259 -50.759683 0.000000 0.000000 0.000000 -7.125000 0.000000 0.000000 -49.491182 80.742116 42.040732 0.000000 0.000000 0.000000 -29.912395 -5.792045 10.489668 -13.441567 -21.930743 -2.615910 -22.214911 1.927864 -25.316426 0.000000 0.000000 0.000000 7.125000 0.000000 0.000000 4.494820 2.986108 4.267916
